# xmcd CD database file
#
# Track frame offsets:
#	150
#	15694
#	38988
#	65962
#	80270
#	95867
#	114052
#	136572
#	159624
#	198922
#	220724
#	241157
#
# Disc length: 3583 seconds
#
# Revision: 0
# Processed by: cddbd v1.5.2PL0 Copyright (c) Steve Scherf et al.
# Submitted via: CDex 1.70beta2
#
DISCID=990dfd0c
DTITLE=Mari Rosa - Honey Spot
DYEAR=2006
DGENRE=Jazz
TTITLE0=Honeyspot
TTITLE1=So Fine (Ooh la la)
TTITLE2=Have You Seen Luis Lately? (alt take)
TTITLE3=Brigas Nunca Mais
TTITLE4=Outerspce Girl
TTITLE5=Besame Mucho
TTITLE6=Chega de Saudade
TTITLE7=Have Your Seen Luis Lately
TTITLE8=Damn You
TTITLE9=O Xodinho (Little Flirt)
TTITLE10=So Nice
TTITLE11=You Mean the World to Me
EXTD=YEAR: 2006
EXTT0=
EXTT1=
EXTT2=
EXTT3=
EXTT4=
EXTT5=
EXTT6=
EXTT7=
EXTT8=
EXTT9=
EXTT10=
EXTT11=
PLAYORDER=
